<svg width="700" height="700" viewBox="0 0 700 700" fill="none" xmlns="http://www.w3.org/2000/svg">
<circle cx="350" cy="350" r="350" fill="#A3F6AA"/>
<ellipse cx="350" cy="314.5" rx="297" ry="314.5" fill="#D4E8D1"/>
<circle cx="350" cy="350" r="325" stroke="#1A6C30" stroke-width="50"/>
<rect x="445.323" y="231.542" width="65" height="40" rx="20" transform="rotate(-20 445.323 231.542)" fill="#1A6C30"/>
<rect x="196.681" y="209" width="65" height="40" rx="20" transform="rotate(20 196.681 209)" fill="#1A6C30"/>
<rect x="104" y="428.891" width="55" height="22" rx="11" transform="rotate(-45 104 428.891)" fill="#1A6C30"/>
<rect x="462" y="428.891" width="55" height="22" rx="11" transform="rotate(-45 462 428.891)" fill="#1A6C30"/>
<rect x="143" y="428.891" width="55" height="22" rx="11" transform="rotate(-45 143 428.891)" fill="#1A6C30"/>
<rect x="501" y="428.891" width="55" height="22" rx="11" transform="rotate(-45 501 428.891)" fill="#1A6C30"/>
<rect x="182" y="428.891" width="55" height="22" rx="11" transform="rotate(-45 182 428.891)" fill="#1A6C30"/>
<rect x="540" y="428.891" width="55" height="22" rx="11" transform="rotate(-45 540 428.891)" fill="#1A6C30"/>
<path d="M283.913 350C283.913 350 276.366 407.031 304.668 410.813C328.781 414.036 326.97 374.527 351.365 374.923C375.259 375.311 372.689 413.829 396.332 410.813C424.369 407.237 414.204 350 414.204 350" stroke="#1A6C30" stroke-width="33"/>
<circle cx="186" cy="331" r="55" fill="#1A6C30"/>
<path d="M189.804 364.897L193.462 356.522C196.663 349.121 202.52 343.186 209.879 339.889L219.946 335.422C223.146 334.001 223.146 329.347 219.946 327.922L210.196 323.597C202.647 320.214 196.686 314.061 193.542 306.41L189.833 297.485C189.542 296.752 189.037 296.123 188.384 295.68C187.731 295.237 186.96 295 186.171 295C185.382 295 184.611 295.237 183.958 295.68C183.305 296.123 182.8 296.752 182.508 297.485L178.804 306.41C175.66 314.061 169.699 320.214 162.15 323.597L152.4 327.926C149.2 329.343 149.2 334.001 152.4 335.422L162.463 339.889C169.821 343.185 175.677 349.118 178.879 356.518L182.537 364.893C182.838 365.608 183.344 366.219 183.99 366.648C184.636 367.077 185.395 367.306 186.171 367.306C186.947 367.306 187.705 367.077 188.352 366.648C188.998 366.219 189.503 365.612 189.804 364.897Z" fill="white"/>
<circle cx="516" cy="331" r="55" fill="#1A6C30"/>
<path d="M517.959 353.367L520.437 347.692C522.605 342.676 526.572 338.655 531.556 336.42L538.374 333.393C540.542 332.43 540.542 329.276 538.374 328.31L531.771 325.379C526.658 323.087 522.62 318.917 520.491 313.732L517.979 307.684C517.782 307.187 517.44 306.761 516.997 306.461C516.555 306.16 516.033 306 515.499 306C514.964 306 514.442 306.16 514 306.461C513.558 306.761 513.216 307.187 513.018 307.684L510.509 313.732C508.38 318.917 504.342 323.087 499.229 325.379L492.626 328.313C490.458 329.273 490.458 332.43 492.626 333.393L499.441 336.42C504.425 338.654 508.391 342.674 510.56 347.689L513.038 353.365C513.241 353.849 513.584 354.263 514.021 354.554C514.459 354.845 514.973 355 515.499 355C516.024 355 516.538 354.845 516.976 354.554C517.413 354.263 517.756 353.852 517.959 353.367Z" fill="white"/>
</svg>
