<?xml version="1.0" encoding="UTF-8"?>
<svg xmlns="http://www.w3.org/2000/svg" xmlns:xlink="http://www.w3.org/1999/xlink" width="35px" height="35px" viewBox="0 0 35 35" version="1.1">
<g id="surface1">
<path style=" stroke:none;fill-rule:nonzero;fill:rgb(74.117647%,91.764706%,95.294118%);fill-opacity:1;" d="M 35 17.5 C 35 27.164062 27.164062 35 17.5 35 C 7.835938 35 0 27.164062 0 17.5 C 0 7.835938 7.835938 0 17.5 0 C 27.164062 0 35 7.835938 35 17.5 Z M 35 17.5 "/>
<path style=" stroke:none;fill-rule:nonzero;fill:rgb(97.647059%,98.039216%,95.686275%);fill-opacity:1;" d="M 32.351562 15.726562 C 32.351562 7.039062 25.703125 0 17.5 0 C 9.296875 0 2.648438 7.039062 2.648438 15.726562 C 2.648438 24.410156 9.296875 31.449219 17.5 31.449219 C 25.703125 31.449219 32.351562 24.410156 32.351562 15.726562 Z M 32.351562 15.726562 "/>
<path style="fill:none;stroke-width:50;stroke-linecap:butt;stroke-linejoin:round;stroke:rgb(0%,12.156863%,14.117647%);stroke-opacity:1;stroke-miterlimit:4;" d="M 675 350 C 675 529.53125 529.53125 675 350 675 C 170.46875 675 25 529.53125 25 350 C 25 170.46875 170.46875 25 350 25 C 529.53125 25 675 170.46875 675 350 Z M 675 350 " transform="matrix(0.05,0,0,0.05,0,0)"/>
<path style=" stroke:none;fill-rule:nonzero;fill:rgb(0%,12.156863%,14.117647%);fill-opacity:1;" d="M 23.207031 11.234375 L 24.378906 10.808594 C 24.898438 10.617188 25.472656 10.886719 25.664062 11.40625 C 25.851562 11.925781 25.582031 12.5 25.066406 12.6875 L 23.890625 13.113281 C 23.371094 13.304688 22.796875 13.035156 22.609375 12.515625 C 22.417969 11.996094 22.6875 11.425781 23.207031 11.234375 Z M 23.207031 11.234375 "/>
<path style=" stroke:none;fill-rule:nonzero;fill:rgb(0%,12.156863%,14.117647%);fill-opacity:1;" d="M 10.773438 10.792969 L 11.949219 11.21875 C 12.46875 11.410156 12.734375 11.980469 12.546875 12.5 C 12.355469 13.019531 11.785156 13.289062 11.265625 13.097656 L 10.089844 12.671875 C 9.570312 12.484375 9.304688 11.910156 9.492188 11.390625 C 9.679688 10.871094 10.253906 10.601562 10.773438 10.792969 Z M 10.773438 10.792969 "/>
<path style=" stroke:none;fill-rule:nonzero;fill:rgb(0%,12.156863%,14.117647%);fill-opacity:1;" d="M 5.589844 21.054688 L 6.753906 19.890625 C 6.96875 19.675781 7.320312 19.675781 7.535156 19.890625 C 7.75 20.105469 7.75 20.453125 7.535156 20.667969 L 6.367188 21.832031 C 6.152344 22.046875 5.804688 22.046875 5.589844 21.832031 C 5.375 21.617188 5.375 21.269531 5.589844 21.054688 Z M 5.589844 21.054688 "/>
<path style=" stroke:none;fill-rule:nonzero;fill:rgb(0%,12.156863%,14.117647%);fill-opacity:1;" d="M 23.488281 21.054688 L 24.65625 19.890625 C 24.871094 19.675781 25.21875 19.675781 25.433594 19.890625 C 25.648438 20.105469 25.648438 20.453125 25.433594 20.667969 L 24.265625 21.832031 C 24.050781 22.046875 23.703125 22.046875 23.488281 21.832031 C 23.273438 21.617188 23.273438 21.269531 23.488281 21.054688 Z M 23.488281 21.054688 "/>
<path style=" stroke:none;fill-rule:nonzero;fill:rgb(0%,12.156863%,14.117647%);fill-opacity:1;" d="M 7.539062 21.054688 L 8.707031 19.890625 C 8.921875 19.675781 9.269531 19.675781 9.484375 19.890625 C 9.699219 20.105469 9.699219 20.453125 9.484375 20.667969 L 8.316406 21.832031 C 8.101562 22.046875 7.753906 22.046875 7.539062 21.832031 C 7.324219 21.617188 7.324219 21.269531 7.539062 21.054688 Z M 7.539062 21.054688 "/>
<path style=" stroke:none;fill-rule:nonzero;fill:rgb(0%,12.156863%,14.117647%);fill-opacity:1;" d="M 25.4375 21.054688 L 26.605469 19.890625 C 26.820312 19.675781 27.167969 19.675781 27.382812 19.890625 C 27.597656 20.105469 27.597656 20.453125 27.382812 20.667969 L 26.214844 21.832031 C 26 22.046875 25.652344 22.046875 25.4375 21.832031 C 25.222656 21.617188 25.222656 21.269531 25.4375 21.054688 Z M 25.4375 21.054688 "/>
<path style=" stroke:none;fill-rule:nonzero;fill:rgb(0%,12.156863%,14.117647%);fill-opacity:1;" d="M 9.488281 21.054688 L 10.65625 19.890625 C 10.871094 19.675781 11.21875 19.675781 11.433594 19.890625 C 11.648438 20.105469 11.648438 20.453125 11.433594 20.667969 L 10.265625 21.832031 C 10.050781 22.046875 9.703125 22.046875 9.488281 21.832031 C 9.273438 21.617188 9.273438 21.269531 9.488281 21.054688 Z M 9.488281 21.054688 "/>
<path style=" stroke:none;fill-rule:nonzero;fill:rgb(0%,12.156863%,14.117647%);fill-opacity:1;" d="M 27.390625 21.054688 L 28.554688 19.890625 C 28.769531 19.675781 29.117188 19.675781 29.332031 19.890625 C 29.546875 20.105469 29.546875 20.453125 29.332031 20.667969 L 28.167969 21.832031 C 27.953125 22.046875 27.605469 22.046875 27.390625 21.832031 C 27.175781 21.617188 27.175781 21.269531 27.390625 21.054688 Z M 27.390625 21.054688 "/>
<path style="fill:none;stroke-width:33;stroke-linecap:butt;stroke-linejoin:round;stroke:rgb(0%,12.156863%,14.117647%);stroke-opacity:1;stroke-miterlimit:4;" d="M 283.90625 350 C 283.90625 350 276.328125 407.03125 304.6875 410.78125 C 328.75 414.0625 326.953125 374.53125 351.328125 374.921875 C 375.234375 375.3125 372.65625 413.828125 396.328125 410.78125 C 424.375 407.265625 414.21875 350 414.21875 350 " transform="matrix(0.05,0,0,0.05,0,0)"/>
<path style=" stroke:none;fill-rule:nonzero;fill:rgb(0%,12.156863%,14.117647%);fill-opacity:1;" d="M 12.050781 16.550781 C 12.050781 18.070312 10.820312 19.300781 9.300781 19.300781 C 7.78125 19.300781 6.550781 18.070312 6.550781 16.550781 C 6.550781 15.03125 7.78125 13.800781 9.300781 13.800781 C 10.820312 13.800781 12.050781 15.03125 12.050781 16.550781 Z M 12.050781 16.550781 "/>
<path style=" stroke:none;fill-rule:nonzero;fill:rgb(100%,100%,100%);fill-opacity:1;" d="M 9.488281 18.246094 L 9.671875 17.824219 C 9.832031 17.457031 10.125 17.160156 10.492188 16.996094 L 10.996094 16.769531 C 11.15625 16.699219 11.15625 16.46875 10.996094 16.394531 L 10.511719 16.179688 C 10.132812 16.011719 9.835938 15.703125 9.675781 15.320312 L 9.492188 14.875 C 9.476562 14.835938 9.453125 14.804688 9.417969 14.785156 C 9.386719 14.761719 9.347656 14.75 9.308594 14.75 C 9.269531 14.75 9.230469 14.761719 9.199219 14.785156 C 9.164062 14.804688 9.140625 14.835938 9.125 14.875 L 8.941406 15.320312 C 8.78125 15.703125 8.484375 16.011719 8.109375 16.179688 L 7.621094 16.394531 C 7.460938 16.46875 7.460938 16.699219 7.621094 16.769531 L 8.125 16.996094 C 8.492188 17.160156 8.785156 17.457031 8.945312 17.824219 L 9.125 18.246094 C 9.140625 18.28125 9.167969 18.3125 9.199219 18.332031 C 9.230469 18.355469 9.269531 18.367188 9.308594 18.367188 C 9.347656 18.367188 9.386719 18.355469 9.417969 18.332031 C 9.449219 18.3125 9.476562 18.28125 9.488281 18.246094 Z M 9.488281 18.246094 "/>
<path style=" stroke:none;fill-rule:nonzero;fill:rgb(0%,12.156863%,14.117647%);fill-opacity:1;" d="M 28.550781 16.550781 C 28.550781 18.070312 27.320312 19.300781 25.800781 19.300781 C 24.28125 19.300781 23.050781 18.070312 23.050781 16.550781 C 23.050781 15.03125 24.28125 13.800781 25.800781 13.800781 C 27.320312 13.800781 28.550781 15.03125 28.550781 16.550781 Z M 28.550781 16.550781 "/>
<path style=" stroke:none;fill-rule:nonzero;fill:rgb(100%,100%,100%);fill-opacity:1;" d="M 25.898438 17.667969 L 26.023438 17.382812 C 26.128906 17.132812 26.328125 16.933594 26.578125 16.820312 L 26.917969 16.667969 C 27.027344 16.621094 27.027344 16.464844 26.917969 16.414062 L 26.589844 16.269531 C 26.332031 16.15625 26.132812 15.945312 26.023438 15.6875 L 25.898438 15.382812 C 25.890625 15.359375 25.871094 15.339844 25.851562 15.324219 C 25.828125 15.308594 25.800781 15.300781 25.773438 15.300781 C 25.75 15.300781 25.722656 15.308594 25.699219 15.324219 C 25.679688 15.339844 25.660156 15.359375 25.652344 15.382812 L 25.527344 15.6875 C 25.417969 15.945312 25.21875 16.15625 24.960938 16.269531 L 24.632812 16.414062 C 24.523438 16.464844 24.523438 16.621094 24.632812 16.667969 L 24.972656 16.820312 C 25.222656 16.933594 25.417969 17.132812 25.527344 17.382812 L 25.652344 17.667969 C 25.660156 17.691406 25.679688 17.714844 25.699219 17.726562 C 25.722656 17.742188 25.75 17.75 25.773438 17.75 C 25.800781 17.75 25.828125 17.742188 25.847656 17.726562 C 25.871094 17.714844 25.886719 17.691406 25.898438 17.667969 Z M 25.898438 17.667969 "/>
</g>
</svg>
