<svg width="31" height="30" viewBox="0 0 31 30" fill="none" xmlns="http://www.w3.org/2000/svg">
<rect width="31" height="30" fill="#111411"/>
<path d="M10.3333 15V17.5C10.3333 18.875 10.8392 20.0521 11.851 21.0313C12.8628 22.0104 14.0791 22.5 15.4999 22.5C16.9208 22.5 18.1371 22.0104 19.1489 21.0313C20.1607 20.0521 20.6666 18.875 20.6666 17.5V15H10.3333ZM15.4999 20.625C14.5958 20.625 13.8315 20.3229 13.2072 19.7187C12.5829 19.1146 12.2708 18.375 12.2708 17.5V16.875H18.7291V17.5C18.7291 18.375 18.4169 19.1146 17.7926 19.7187C17.1683 20.3229 16.4041 20.625 15.4999 20.625ZM10.9791 8.75C10.161 8.75 9.43425 9.03667 8.79875 9.61C8.16325 10.1833 7.7172 10.9696 7.46059 11.9687L9.3335 12.4063C9.46267 11.8646 9.67795 11.4321 9.97933 11.1088C10.2807 10.7854 10.614 10.6242 10.9791 10.625C11.3451 10.625 11.6787 10.7867 11.9801 11.11C12.2815 11.4333 12.4968 11.8654 12.626 12.4063L14.4989 11.9687C14.2405 10.9687 13.7941 10.1825 13.1594 9.61C12.5248 9.0375 11.798 8.75083 10.9791 8.75ZM20.0208 8.75C19.2027 8.75 18.4759 9.03667 17.8404 9.61C17.2049 10.1833 16.7584 10.9696 16.501 11.9687L18.3739 12.4063C18.503 11.8646 18.7183 11.4321 19.0197 11.1088C19.3211 10.7854 19.6548 10.6242 20.0208 10.625C20.3867 10.625 20.7204 10.7867 21.0218 11.11C21.3232 11.4333 21.5385 11.8654 21.6676 12.4063L23.5405 11.9687C23.2822 10.9687 22.8353 10.1825 22.1998 9.61C21.5643 9.0375 20.8379 8.75083 20.0208 8.75ZM15.4999 27.5C13.7131 27.5 12.0339 27.1717 10.4624 26.515C8.89089 25.8583 7.52388 24.9679 6.36138 23.8438C5.19888 22.7188 4.27878 21.3958 3.60109 19.875C2.92339 18.3542 2.58411 16.7292 2.58325 15C2.58325 13.2708 2.92253 11.6458 3.60109 10.125C4.27964 8.60417 5.19974 7.28125 6.36138 6.15625C7.52388 5.03125 8.89089 4.14083 10.4624 3.485C12.0339 2.82917 13.7131 2.50083 15.4999 2.5C17.2867 2.5 18.9659 2.82833 20.5374 3.485C22.1089 4.14167 23.476 5.03208 24.6385 6.15625C25.801 7.28125 26.7215 8.60417 27.4 10.125C28.0786 11.6458 28.4174 13.2708 28.4166 15C28.4166 16.7292 28.0773 18.3542 27.3988 19.875C26.7202 21.3958 25.8001 22.7188 24.6385 23.8438C23.476 24.9688 22.1089 25.8596 20.5374 26.5162C18.9659 27.1729 17.2867 27.5008 15.4999 27.5ZM15.4999 25C18.3846 25 20.828 24.0312 22.8301 22.0937C24.8322 20.1562 25.8333 17.7917 25.8333 15C25.8333 12.2083 24.8322 9.84375 22.8301 7.90625C20.828 5.96875 18.3846 5 15.4999 5C12.6152 5 10.1718 5.96875 8.16971 7.90625C6.16763 9.84375 5.16659 12.2083 5.16659 15C5.16659 17.7917 6.16763 20.1562 8.16971 22.0937C10.1718 24.0312 12.6152 25 15.4999 25Z" fill="#F9FAF4"/>
</svg>
